<?xml version="1.0" encoding="UTF-8"?>
<svg version="1.1" xmlns="http://www.w3.org/2000/svg" width="2000" height="409">
<path d="M0 0 C1.44397911 -0.02672287 1.44397911 -0.02672287 2.91712952 -0.0539856 C11.81620604 -0.20864065 20.71639737 -0.29590673 29.61651707 -0.36397934 C35.5988358 -0.41016528 41.57919748 -0.47757773 47.56054688 -0.59667969 C53.33908065 -0.71133232 59.11585733 -0.77186163 64.89546013 -0.79450226 C67.0968369 -0.81227872 69.29814684 -0.84910875 71.49887276 -0.90550995 C88.75385638 -1.32680691 88.75385638 -1.32680691 93.92268372 2.68644714 C95.98670491 5.48666291 97.43911221 8.11221005 98.83374023 11.28808594 C99.61976954 12.50055971 100.43006756 13.69803515 101.27514648 14.87011719 C101.97510742 15.93617187 102.67506836 17.00222656 103.39624023 18.10058594 C107.550623 24.38783228 111.77171992 30.62727455 116.02124023 36.85058594 C116.98404907 38.26090088 116.98404907 38.26090088 117.96630859 39.69970703 C119.92162391 42.56283864 121.87764674 45.42548594 123.83374023 48.28808594 C126.20968031 51.76661171 128.58455415 55.24586282 130.95874023 58.72558594 C131.85109375 60.03269531 131.85109375 60.03269531 132.76147461 61.36621094 C136.62470395 67.03067597 140.47023068 72.70684166 144.30639648 78.38964844 C145.26128589 79.80315881 146.21620129 81.21665163 147.17114258 82.63012695 C149.04231155 85.39987021 150.91067053 88.17148158 152.77758789 90.9440918 C153.64385552 92.2267969 154.51022458 93.50943351 155.37670898 94.79199219 C155.76778336 95.37441681 156.15885773 95.95684143 156.56178284 96.55691528 C158.84362033 99.92854737 161.24851606 103.14335927 163.83374023 106.28808594 C165.00380101 104.70725915 166.16951884 103.12321814 167.33374023 101.53808594 C167.98342773 100.65636719 168.63311523 99.77464844 169.30249023 98.86621094 C172.22341455 94.80403932 174.96100031 90.61902842 177.7277832 86.45117188 C180.99819434 81.53910989 184.32302229 76.66450799 187.64624023 71.78808594 C188.76120824 70.14963212 189.87617346 68.51117641 190.99101257 66.87263489 C194.07199569 62.34453506 197.15354405 57.81681848 200.23735046 53.29064083 C201.37939012 51.6117671 202.51724537 49.93004909 203.65478516 48.24812317 C205.23086191 45.92676443 206.83412613 43.63607922 208.46386719 41.35096741 C212.33766039 35.87705045 215.86796547 30.56447491 218.49720478 24.37458038 C222.37674656 15.24128728 227.05125357 5.58020271 235.83374023 0.28808594 C250.5919348 -5.14761917 268.60350683 -2.70043269 283.96850586 -1.83013916 C289.91593324 -1.52759771 295.86701909 -1.40556658 301.82006836 -1.26464844 C310.47376861 -1.03518744 319.12031559 -0.73995609 327.76611328 -0.30151367 C328.6755217 -0.2579776 329.58493011 -0.21444153 330.52189636 -0.16958618 C336.71282677 0.16717247 336.71282677 0.16717247 337.83374023 1.28808594 C337.9319604 3.00734864 337.95929617 4.73068515 337.95958138 6.45275116 C337.963493 8.14251784 337.963493 8.14251784 337.96748364 9.86642122 C337.96413756 11.74619323 337.96413756 11.74619323 337.96072388 13.66394043 C337.96228387 14.9830767 337.96384386 16.30221297 337.96545112 17.66132307 C337.96964905 21.33984998 337.96755168 25.01835116 337.9644649 28.69687819 C337.9622129 32.65738209 337.96568941 36.6178814 337.96844482 40.5783844 C337.97290366 48.34373341 337.97192555 56.10907279 337.96903218 63.87442219 C337.96677859 70.18255323 337.96646543 76.49068155 337.967556 82.79881287 C337.96770923 83.69483033 337.96786247 84.5908478 337.96802034 85.51401731 C337.96834005 87.33396105 337.96866426 89.15390479 337.96899293 90.97384852 C337.97184806 108.06048476 337.96856019 125.14711564 337.96319257 142.233751 C337.9587245 156.9115333 337.95950042 171.58930769 337.96411133 186.26708984 C337.96945652 203.29040231 337.97157337 220.31371007 337.96849906 237.33702326 C337.9681805 239.15046851 337.96786613 240.96391376 337.967556 242.77735901 C337.96740172 243.66973093 337.96724745 244.56210284 337.9670885 245.48151633 C337.96622318 251.78589138 337.96768654 258.09026347 337.97003555 264.39463806 C337.97283314 272.07207595 337.97209617 279.74950361 337.96675481 287.42694032 C337.96411723 291.34799283 337.96311368 295.26902824 337.96640396 299.19008064 C337.96990882 303.43081262 337.9657389 307.67150101 337.96072388 311.91223145 C337.9629546 313.16541278 337.96518532 314.41859412 337.96748364 315.70975065 C337.96487589 316.83626177 337.96226815 317.96277289 337.95958138 319.12342072 C337.95941902 320.10369626 337.95925667 321.0839718 337.9590894 322.09395266 C337.83374023 324.28808594 337.83374023 324.28808594 336.83374023 325.28808594 C333.69810933 325.38343649 330.5846342 325.41358167 327.44873047 325.40161133 C326.44747918 325.40173186 325.44622789 325.4018524 324.41463566 325.40197659 C321.15717956 325.40122716 317.89977991 325.39359758 314.64233398 325.38574219 C312.63781766 325.38427286 310.63330096 325.38325209 308.62878418 325.38269043 C301.1762637 325.37743648 293.72375142 325.36347541 286.27124023 325.35058594 C261.30467773 325.31964844 261.30467773 325.31964844 235.83374023 325.28808594 C235.50374023 291.29808594 235.17374023 257.30808594 234.83374023 222.28808594 C227.96561523 232.46652344 227.96561523 232.46652344 220.95874023 242.85058594 C219.53577637 244.95892822 218.1128125 247.06727051 216.64672852 249.23950195 C210.86427408 257.80991839 205.09103289 266.38580866 199.36566162 274.99447632 C194.69033636 282.01768988 189.94805727 288.99547138 185.20874023 295.97558594 C183.42430891 298.60410108 181.64048622 301.23302764 179.85717773 303.86230469 C179.43015564 304.49135712 179.00313354 305.12040955 178.56317139 305.76852417 C175.13837737 310.82042054 171.76553147 315.90504394 168.41430664 321.00610352 C166.83374023 323.28808594 166.83374023 323.28808594 164.83374023 325.28808594 C163.84374023 325.28808594 162.85374023 325.28808594 161.83374023 325.28808594 C160.13134766 323.16625977 160.13134766 323.16625977 158.25170898 320.18261719 C157.54449707 319.08127441 156.83728516 317.97993164 156.10864258 316.84521484 C155.73608337 316.25951721 155.36352417 315.67381958 154.97967529 315.07037354 C153.10409271 312.15325572 151.14910069 309.29104941 149.19702148 306.42480469 C148.3743196 305.21139326 147.55181424 303.99784856 146.72949219 302.78417969 C146.30882477 302.16397949 145.88815735 301.5437793 145.45474243 300.90478516 C144.10560348 298.91567286 142.75707966 296.92614469 141.40869141 294.93652344 C137.59822136 289.31428226 133.78648866 283.69289755 129.97436523 278.07177734 C127.64338212 274.63463127 125.31293212 271.19712421 122.98275757 267.75942993 C121.69371388 265.85810888 120.40400334 263.95724149 119.11425781 262.05639648 C114.98582578 255.96861496 110.87180523 249.87128631 106.78295898 243.75683594 C106.41926712 243.21466431 106.05557526 242.67249268 105.68086243 242.1138916 C101.30869025 235.56105611 97.09549832 228.91748741 92.83374023 222.28808594 C92.50374023 256.27808594 92.17374023 290.26808594 91.83374023 325.28808594 C58.17374023 325.28808594 24.51374023 325.28808594 -10.16625977 325.28808594 C-10.18828535 284.02942208 -10.20675713 242.77076374 -10.2173251 201.51209569 C-10.21857587 196.64649152 -10.21987019 191.78088736 -10.22119141 186.9152832 C-10.22145372 185.94658633 -10.22171603 184.97788945 -10.22198629 183.97983813 C-10.22634335 168.273319 -10.23423109 152.56680351 -10.24341256 136.86028654 C-10.25274811 120.75647522 -10.25831516 104.65266582 -10.26034826 88.54885191 C-10.26172369 78.60358997 -10.26607539 68.65833833 -10.27417623 58.71307956 C-10.27944247 51.90291021 -10.28106434 45.09274621 -10.27976114 38.28257496 C-10.27911757 34.3473512 -10.28013743 30.41214549 -10.28546524 26.4769249 C-10.29029942 22.88025762 -10.29059829 19.28362067 -10.28715866 15.68695205 C-10.28653005 13.75705168 -10.29087162 11.82715172 -10.29534107 9.89725643 C-10.29335003 8.76664522 -10.29135898 7.636034 -10.28930759 6.47116184 C-10.28968731 5.48730647 -10.29006703 4.50345109 -10.29045826 3.48978192 C-9.99562529 -1.73679151 -4.04293416 0.06021533 0 0 Z " fill="#FD0117" transform="translate(529.166259765625,37.7119140625)"/>
<path d="M0 0 C1.03184274 -0.00322445 2.06368548 -0.00644889 3.12679619 -0.00977105 C4.2742398 -0.00822245 5.42168342 -0.00667385 6.60389805 -0.00507832 C7.81207284 -0.00734387 9.02024763 -0.00960943 10.26503378 -0.01194364 C13.63379663 -0.01720213 17.00250636 -0.01792458 20.37126958 -0.01674926 C23.99845827 -0.016546 27.62563887 -0.02205683 31.25282383 -0.02680683 C38.36478239 -0.03513018 45.47673267 -0.03786243 52.5886957 -0.03841921 C58.36668878 -0.03889357 64.14467911 -0.04094429 69.92267132 -0.04411983 C86.28654164 -0.05293095 102.65040539 -0.05753849 119.01427811 -0.05678936 C119.89733795 -0.0567494 120.78039779 -0.05670945 121.69021702 -0.05666828 C122.57434887 -0.0566274 123.45848072 -0.05658652 124.36940444 -0.0565444 C138.70429017 -0.05613778 153.03914965 -0.06571006 167.37402778 -0.07980665 C182.0755323 -0.09415026 196.77702401 -0.10107795 211.47853571 -0.10021287 C219.7393381 -0.09988021 228.00011297 -0.10265759 236.26090908 -0.11339092 C243.29347353 -0.12246948 250.32599799 -0.12469307 257.35856574 -0.1178815 C260.94964598 -0.11460285 264.54064939 -0.11460765 268.13172245 -0.12323475 C272.01742197 -0.132474 275.90300762 -0.12635888 279.7887125 -0.11860371 C281.50653184 -0.12631905 281.50653184 -0.12631905 283.2590546 -0.13419026 C284.81073033 -0.12729207 284.81073033 -0.12729207 286.39375305 -0.12025452 C287.29162928 -0.12047188 288.18950551 -0.12068925 289.11459011 -0.12091321 C291.2597971 0.12863445 291.2597971 0.12863445 293.2597971 2.12863445 C293.46406419 5.21640922 293.54291718 8.21486137 293.5344553 11.30417156 C293.5421217 12.7311562 293.5421217 12.7311562 293.54994297 14.1869688 C293.56388545 17.34336861 293.56287869 20.4995512 293.56057835 23.6559782 C293.56446274 25.84311791 293.56879687 28.03025686 293.57356358 30.21739483 C293.58103583 34.80656661 293.58072725 39.39566148 293.57547092 43.98483562 C293.56967526 49.8743541 293.58660495 55.7635582 293.6098156 61.65302467 C293.62452659 66.17138297 293.62542823 70.6896651 293.62230587 75.2080431 C293.62282042 77.37982652 293.62808304 79.55161406 293.63811779 81.72337437 C293.65041368 84.75702671 293.64373163 87.79006084 293.63211155 90.82370281 C293.63975529 91.72614727 293.64739902 92.62859173 293.65527439 93.55838299 C293.64826008 94.38420376 293.64124577 95.21002453 293.6340189 96.06087017 C293.63427051 97.1368542 293.63427051 97.1368542 293.63452721 98.23457527 C293.2597971 100.12863445 293.2597971 100.12863445 292.20530128 101.85990143 C289.22313668 103.80467787 286.20130153 103.53448865 282.75750828 103.49612713 C281.98668144 103.49939597 281.21585459 103.50266481 280.42166936 103.50603271 C277.83056705 103.51333395 275.24002532 103.49913681 272.64895725 103.48507977 C270.79458107 103.48587036 268.94020504 103.48796677 267.08583164 103.49127483 C262.04236731 103.49641844 256.99910627 103.48285334 251.95567465 103.46574783 C246.68224705 103.45073283 241.40882233 103.45188631 236.13537693 103.45108318 C227.27642431 103.44738779 218.41754904 103.43240847 209.55862522 103.40988445 C198.18661938 103.38102983 186.81467592 103.37066316 175.44263744 103.36620235 C165.67093216 103.36222119 155.89924044 103.34971772 146.12754488 103.33585548 C142.98462391 103.33175719 139.84170341 103.32883114 136.69878101 103.3260603 C131.75927795 103.32116351 126.81981259 103.31095362 121.88032818 103.29662228 C120.06668978 103.29210285 118.25304631 103.28926145 116.43940258 103.28821468 C113.96491502 103.28646613 111.49052142 103.27857564 109.0160532 103.26907635 C107.93788521 103.27037607 107.93788521 103.27037607 106.83793604 103.27170205 C103.09388699 103.25012343 99.9799104 102.87265711 96.2597971 102.12863445 C96.2597971 109.71863445 96.2597971 117.30863445 96.2597971 125.12863445 C144.7697971 125.12863445 193.2797971 125.12863445 243.2597971 125.12863445 C243.2597971 150.20863445 243.2597971 175.28863445 243.2597971 201.12863445 C194.7497971 201.12863445 146.2397971 201.12863445 96.2597971 201.12863445 C96.2597971 208.38863445 96.2597971 215.64863445 96.2597971 223.12863445 C160.9397971 223.12863445 225.6197971 223.12863445 292.2597971 223.12863445 C293.98036878 226.56977782 293.39765197 230.53321462 293.38919163 234.3200407 C293.39182011 235.74943478 293.39182011 235.74943478 293.39450169 237.2077055 C293.39891578 240.36886681 293.39598375 243.52997253 293.3926096 246.69113445 C293.39328276 248.88066907 293.39425289 251.07020361 293.39550877 253.25973797 C293.39698514 257.85308829 293.39483311 262.4464192 293.39016819 267.03976727 C293.38447095 272.93824592 293.38775027 278.83667908 293.39374065 284.73515606 C293.39734789 289.25774766 293.39620693 293.78032842 293.39361286 298.30292034 C293.39294404 300.47831509 293.39377045 302.65371081 293.39609241 304.82910442 C293.39862157 307.86517237 293.39477457 310.90116583 293.38919163 313.9372282 C293.39121586 314.84326794 293.39324009 315.74930767 293.39532566 316.68280315 C293.37406083 322.90010698 293.37406083 322.90010698 292.2597971 325.12863445 C254.4407756 325.15149943 216.62175515 325.16913197 178.80272815 325.17969978 C174.34269839 325.18095056 169.88266864 325.18224488 165.42263889 325.18356609 C164.09071348 325.18395956 164.09071348 325.18395956 162.73188048 325.18436097 C148.33483278 325.18871796 133.93778905 325.19660567 119.54074372 325.20578725 C104.77938715 325.21512299 90.01803267 325.22068989 75.25667328 325.22272295 C66.1405665 325.22409834 57.02447095 325.22844982 47.90836763 325.23655092 C41.66586732 325.24181739 35.42337285 325.24343897 29.18087048 325.24213583 C25.57373925 325.24149229 21.9666277 325.2425117 18.35949993 325.24783993 C14.45809923 325.2535611 10.55672462 325.25163556 6.65532017 325.24888897 C4.92627196 325.25325823 4.92627196 325.25325823 3.16229349 325.25771576 C2.12573396 325.25572471 1.08917442 325.25373366 0.02120399 325.25168228 C-1.33154968 325.25225186 -1.33154968 325.25225186 -2.71163172 325.25283295 C-4.7402029 325.12863445 -4.7402029 325.12863445 -5.7402029 324.12863445 C-5.83842307 322.40937175 -5.86575884 320.68603524 -5.86604404 318.96396923 C-5.86865179 317.83745811 -5.87125954 316.71094699 -5.87394631 315.55029917 C-5.87171559 314.29711783 -5.86948487 313.04393649 -5.86718655 311.75277996 C-5.86874654 310.43364369 -5.87030653 309.11450742 -5.87191379 307.75539732 C-5.87611172 304.07687041 -5.87401435 300.39836924 -5.87092757 296.7198422 C-5.86867557 292.7593383 -5.87215208 288.79883899 -5.87490749 284.83833599 C-5.87936633 277.07298698 -5.87838822 269.3076476 -5.87549485 261.5422982 C-5.87324126 255.23416717 -5.8729281 248.92603884 -5.87401867 242.61790752 C-5.8741719 241.72189006 -5.87432514 240.82587259 -5.87448301 239.90270308 C-5.87480272 238.08275934 -5.87512693 236.2628156 -5.8754556 234.44287187 C-5.87831073 217.35623563 -5.87502286 200.26960475 -5.86965524 183.18296939 C-5.86518717 168.50518709 -5.86596309 153.8274127 -5.870574 139.14963055 C-5.87591919 122.12631808 -5.87803603 105.10301032 -5.87496173 88.07969713 C-5.87464317 86.26625188 -5.8743288 84.45280663 -5.87401867 82.63936138 C-5.87378726 81.30080351 -5.87378726 81.30080351 -5.87355117 79.93520406 C-5.87268585 73.63082901 -5.87414921 67.32645692 -5.87649822 61.02208233 C-5.87929581 53.34464444 -5.87855884 45.66721678 -5.87321748 37.98978007 C-5.8705799 34.06872756 -5.86957634 30.14769215 -5.87286663 26.22663975 C-5.87637149 21.98590778 -5.87220157 17.74521938 -5.86718655 13.50448895 C-5.86941727 12.25130761 -5.87164799 10.99812627 -5.87394631 9.70696974 C-5.87133856 8.58045862 -5.86873081 7.4539475 -5.86604404 6.29329967 C-5.86588169 5.31302413 -5.86571934 4.33274859 -5.86555207 3.32276773 C-5.63330141 -0.74258773 -3.5681556 0.00279989 0 0 Z " fill="#FC0118" transform="translate(1693.7402029037476,37.871365547180176)"/>
<path d="M0 0 C3.42533298 3.29827271 6.50476093 6.7681992 9.52734375 10.43359375 C10.20023438 11.20703125 10.873125 11.98046875 11.56640625 12.77734375 C39.2578292 45.26339471 51.10532266 86.63729541 48.25390625 128.97265625 C44.57127803 173.91497592 22.93487546 213.81636739 -11.31591797 243.00439453 C-45.92644083 271.34470206 -89.13271511 282.06156459 -133.2578125 277.96484375 C-174.28749511 273.24428111 -211.44613835 252.05682488 -237.90234375 220.5390625 C-240.19115345 217.56198084 -242.3497241 214.53122867 -244.47265625 211.43359375 C-245.12596924 210.4902417 -245.12596924 210.4902417 -245.79248047 209.52783203 C-272.02049545 171.40219457 -279.19028399 126.76949791 -271.47265625 81.43359375 C-262.93340744 40.48432082 -236.65621939 2.9090342 -201.98828125 -20.33984375 C-136.36684115 -62.46121081 -56.37881531 -51.95074566 0 0 Z M-160.47265625 78.43359375 C-171.60331491 91.77626491 -173.64106511 108.72099482 -172.47265625 125.43359375 C-170.64465837 140.03093931 -162.50729703 154.13364784 -150.9699707 163.26367188 C-150.43460693 163.67037109 -149.89924316 164.07707031 -149.34765625 164.49609375 C-148.78071045 164.92728516 -148.21376465 165.35847656 -147.62963867 165.80273438 C-133.74338864 176.0655562 -118.01090899 178.19388666 -101.16796875 176.00390625 C-85.46469108 172.62999248 -73.25755408 163.2123429 -64.2578125 150.22265625 C-61.6122891 146.08938775 -59.35210598 141.96847813 -57.47265625 137.43359375 C-57.15296875 136.66402344 -56.83328125 135.89445312 -56.50390625 135.1015625 C-51.95885272 121.73994679 -52.98234232 105.3074333 -58.47265625 92.43359375 C-58.78460937 91.68078125 -59.0965625 90.92796875 -59.41796875 90.15234375 C-65.54389698 76.76796275 -77.46136995 65.06992482 -90.99609375 59.37109375 C-117.26093166 50.29619959 -142.39496835 58.0998104 -160.47265625 78.43359375 Z " fill="#FD0118" transform="translate(1160.47265625,84.56640625)"/>
<path d="M0 0 C0.70850084 -0.00155999 1.41700168 -0.00311998 2.14697224 -0.00472724 C4.4967714 -0.00868343 6.84650479 -0.00556876 9.19630432 -0.00241089 C10.89042193 -0.00376723 12.58453925 -0.00554848 14.27865601 -0.00772095 C18.8607553 -0.01226507 23.44283199 -0.01051882 28.02493167 -0.00734186 C32.82107525 -0.00480554 37.61721693 -0.00715908 42.4133606 -0.00872803 C50.45885058 -0.01054477 58.50433136 -0.0081551 66.54981995 -0.00338745 C75.86237682 0.00206717 85.17491183 0.00028184 94.48746818 -0.00521386 C102.48248528 -0.00974366 110.47749577 -0.01039658 118.47251374 -0.00777519 C123.24834652 -0.00621334 128.02416901 -0.00601639 132.80000114 -0.00931168 C137.28237756 -0.01218889 141.76472559 -0.0102175 146.24709892 -0.00441742 C147.89633131 -0.00308957 149.54556606 -0.00348436 151.19479752 -0.00568008 C153.43613156 -0.00839029 155.67737311 -0.00501225 157.91870117 0 C159.17577598 0.00037703 160.43285078 0.00075405 161.72801876 0.0011425 C164.51490784 0.12698364 164.51490784 0.12698364 165.51490784 1.12698364 C165.62091186 4.22132602 165.66168239 7.29347195 165.66017151 10.38845825 C165.66520943 11.846894 165.66520943 11.846894 165.67034912 13.33479309 C165.67989046 16.56631733 165.68180381 19.79778993 165.68287659 23.02932739 C165.6860869 25.26513186 165.6894508 27.5009361 165.69296265 29.73674011 C165.69896186 34.43022143 165.70080173 39.12368431 165.70021057 43.81716919 C165.70010889 49.84462472 165.71376359 55.8719626 165.73098278 61.89939022 C165.74207667 66.51892138 165.74413059 71.13842387 165.74360085 75.757967 C165.74478482 77.98081429 165.74922976 80.20366224 165.75693321 82.42649651 C165.76668076 85.52978741 165.76387588 88.63281984 165.75782776 91.7361145 C165.76344727 92.66242676 165.76906677 93.58873901 165.77485657 94.54312134 C165.76856483 95.8072007 165.76856483 95.8072007 165.762146 97.09681702 C165.76269076 97.831109 165.76323553 98.56540098 165.76379681 99.32194424 C165.51490784 101.12698364 165.51490784 101.12698364 163.51490784 103.12698364 C161.20731926 103.3730793 161.20731926 103.3730793 158.26316833 103.36749268 C157.14975067 103.370242 156.03633301 103.37299133 154.88917542 103.37582397 C153.66206848 103.36863342 152.43496155 103.36144287 151.17066956 103.35403442 C149.23902451 103.3544725 149.23902451 103.3544725 147.26835632 103.35491943 C143.73134203 103.35549464 140.19446263 103.34371337 136.65747976 103.32977152 C132.96324435 103.31729197 129.26900605 103.31609586 125.57475281 103.3137207 C118.57659436 103.30749775 111.5784982 103.29107595 104.58036721 103.27102172 C96.61433847 103.24868804 88.64830679 103.23767567 80.68225455 103.22763085 C64.29310248 103.20671039 47.9040131 103.17151863 31.51490784 103.12698364 C31.51490784 105.76698364 31.51490784 108.40698364 31.51490784 111.12698364 C32.23750793 111.40372925 32.96010803 111.68047485 33.7046051 111.96560669 C55.22772567 120.86018445 77.6363136 134.15699653 95.51490784 149.12698364 C96.25482971 149.71608521 96.99475159 150.30518677 97.75709534 150.91213989 C103.49313529 155.63265526 107.99576322 161.25945049 112.51490784 167.12698364 C113.1349469 167.90815552 113.75498596 168.68932739 114.39381409 169.49417114 C129.75840379 189.91154538 133.15453643 216.04795695 130.18531799 240.88381958 C129.35654396 246.08662271 128.08990136 251.10343227 126.51490784 256.12698364 C126.16428284 257.26780396 125.81365784 258.40862427 125.45240784 259.58401489 C120.85733199 272.77890284 113.32234919 284.24231834 103.51490784 294.12698364 C102.68990784 294.99323364 101.86490784 295.85948364 101.01490784 296.75198364 C100.18990784 297.53573364 99.36490784 298.31948364 98.51490784 299.12698364 C97.90647034 299.71866333 97.29803284 300.31034302 96.67115784 300.91995239 C75.79464099 320.47277704 50.32282007 325.30567401 22.68238831 325.24050903 C20.99620567 325.24022653 19.3100229 325.24038613 17.62384033 325.24095154 C13.07291383 325.24123705 8.52201399 325.23538016 3.97109365 325.22837758 C-0.79480763 325.22210303 -5.5607096 325.22153701 -10.32661438 325.22035217 C-19.33965089 325.21725092 -28.35267518 325.20905384 -37.36570632 325.19900268 C-49.5534161 325.18570781 -61.74112925 325.1803319 -73.92884445 325.17450047 C-93.11426949 325.1651131 -112.29966877 325.14518613 -131.48509216 325.12698364 C-131.48509216 291.46698364 -131.48509216 257.80698364 -131.48509216 223.12698364 C-122.04013123 223.06639771 -112.59517029 223.00581177 -102.86399841 222.94338989 C-96.89849919 222.90291922 -90.93300343 222.86219903 -84.96751404 222.82034302 C-75.48828277 222.75388016 -66.00905221 222.68846803 -56.5297699 222.62966919 C-49.62731754 222.58684944 -42.72489859 222.54057712 -35.82249779 222.49010509 C-32.16550518 222.46348628 -28.50851928 222.43863285 -24.85148811 222.41790962 C-20.77561123 222.39474839 -16.69982856 222.36388125 -12.62400818 222.33230591 C-10.79198097 222.32367271 -10.79198097 222.32367271 -8.92294312 222.31486511 C-7.26749985 222.30018188 -7.26749985 222.30018188 -5.57861328 222.28520203 C-4.61349603 222.27874948 -3.64837877 222.27229692 -2.65401554 222.26564884 C-0.50600206 222.36807718 -0.50600206 222.36807718 0.51490784 221.12698364 C1.01058199 218.73075134 1.01058199 218.73075134 0.51490784 216.12698364 C-1.49525206 214.21889291 -1.49525206 214.21889291 -4.42259216 212.68948364 C-4.98035339 212.36512329 -5.53811462 212.04076294 -6.11277771 211.70657349 C-8.22424838 210.4897566 -10.35331251 209.30786935 -12.48509216 208.12698364 C-14.44101695 207.03488601 -16.39673051 205.94241001 -18.35227966 204.84963989 C-19.92574158 203.97142578 -19.92574158 203.97142578 -21.5309906 203.07546997 C-23.14795837 202.17284424 -23.14795837 202.17284424 -24.79759216 201.25198364 C-25.8884613 200.64314331 -26.97933044 200.03430298 -28.10325623 199.40701294 C-42.43016587 191.38964345 -55.38719643 183.28157367 -67.48509216 172.12698364 C-68.32813904 171.36643677 -69.17118591 170.60588989 -70.03977966 169.82229614 C-87.78789602 153.05677446 -97.78104391 129.18293233 -98.67259216 104.95510864 C-99.30600364 76.00525043 -89.84590678 51.08165377 -69.85594177 30.0461731 C-50.94719718 10.6933612 -27.31467471 0.00817513 0 0 Z " fill="#FD0118" transform="translate(137.48509216308594,37.873016357421875)"/>
<path d="M0 0 C34.65 0 69.3 0 105 0 C109.49943376 10.12372597 109.49943376 10.12372597 110.70068359 13.77734375 C110.97608475 14.60696121 111.2514859 15.43657867 111.53523254 16.29133606 C111.82009018 17.16457016 112.10494781 18.03780426 112.3984375 18.9375 C112.8653022 20.3485627 112.8653022 20.3485627 113.34159851 21.78813171 C114.00904602 23.80655432 114.67451425 25.82563234 115.33816528 27.8453064 C117.11803573 33.26077504 118.91317505 38.67118254 120.70703125 44.08203125 C121.25160225 45.72628838 121.25160225 45.72628838 121.80717468 47.40376282 C125.16213347 57.52031103 128.60111595 67.60697148 132.0625 77.6875 C136.98543915 92.03986114 141.83373466 106.41564042 146.625 120.8125 C146.93841339 121.7541803 147.25182678 122.6958606 147.57473755 123.66607666 C150.00772318 130.97833887 152.43687366 138.29187318 154.8651123 145.60571289 C156.4925229 150.50737155 158.12101247 155.40866846 159.75115967 160.30941772 C160.46252464 162.44974556 161.17202612 164.59068374 161.88134766 166.73168945 C165.46743366 177.53006047 169.21686523 188.26923263 173 199 C175.52552859 191.60238661 178.04710346 184.20343772 180.5639677 176.80287266 C181.73341985 173.36461024 182.90410811 169.9267803 184.07788086 166.48999023 C185.21571276 163.15827185 186.34995909 159.82535075 187.48197365 156.49165154 C188.11368477 154.6341365 188.74887746 152.77780662 189.38420105 150.92152405 C191.53764325 144.5697844 193.5560952 138.19976266 195.41918945 131.75830078 C198.0929203 122.52448182 201.10407003 113.41530273 204.15625 104.30078125 C204.74594851 102.53288517 205.33542037 100.76491349 205.92468262 98.99687195 C207.1565873 95.30271045 208.39047652 91.60922033 209.62597656 87.91625977 C211.1671464 83.3094738 212.70449387 78.70142461 214.24049377 74.09291267 C220.26742208 56.01252024 226.32910761 37.94383286 232.47581482 19.90376854 C233.05109615 18.21471465 233.62545819 16.52534735 234.1988678 14.83565712 C234.98570741 12.51855515 235.77640398 10.20280878 236.56835938 7.88745117 C236.80148331 7.19904081 237.03460724 6.51063046 237.27479553 5.80135918 C238.88537899 1.11462101 238.88537899 1.11462101 240 0 C241.37876025 -0.0953919 242.76236916 -0.12188622 244.14442444 -0.12025452 C245.48433693 -0.12231651 245.48433693 -0.12231651 246.85131836 -0.12442017 C248.33269287 -0.11902725 248.33269287 -0.11902725 249.84399414 -0.11352539 C250.87801865 -0.11367142 251.91204315 -0.11381744 252.97740173 -0.1139679 C256.41334086 -0.11326827 259.84922653 -0.10547358 263.28515625 -0.09765625 C265.66027293 -0.09579225 268.03539 -0.09436826 270.4105072 -0.09336853 C276.67576144 -0.08954197 282.94099267 -0.0797105 289.20623779 -0.06866455 C295.5938689 -0.0584534 301.98150371 -0.05387155 308.36914062 -0.04882812 C320.91277026 -0.03808836 333.45638391 -0.02120127 346 0 C345.3333267 5.0150418 344.32509855 9.49620341 342.69921875 14.29296875 C342.46709183 14.98364441 342.2349649 15.67432007 341.99580383 16.38592529 C341.23186379 18.65501297 340.45959441 20.92117548 339.6875 23.1875 C339.14452382 24.79673435 338.60221817 26.40619509 338.06054688 28.01586914 C336.93547959 31.35720133 335.80754799 34.69754438 334.67724609 38.03710938 C332.3471169 44.92577899 330.04056348 51.82228744 327.73947144 58.72070312 C327.24363212 60.20713652 326.7474737 61.69346351 326.25100708 63.1796875 C322.72782925 73.72936608 319.2763807 84.30042946 315.86618042 94.88711548 C311.24587977 109.22703573 306.47360724 123.50671089 301.57672119 137.75448608 C296.11962235 153.63729502 290.79622264 169.56288981 285.5 185.5 C280.02203984 201.98058727 274.51409295 218.44880524 268.875 234.875 C262.06336829 254.71783116 255.43146025 274.61953716 248.8125 294.52734375 C248.48637726 295.5073938 248.16025452 296.48744385 247.82424927 297.49719238 C246.27632964 302.15079192 244.73361655 306.80596927 243.203125 311.46533203 C242.9249292 312.30898819 242.6467334 313.15264435 242.36010742 314.02186584 C241.84217156 315.59302319 241.32657249 317.1649535 240.8137207 318.73777771 C239.11253523 323.88746477 239.11253523 323.88746477 238 325 C236.30441297 325.09619441 234.6047916 325.12187659 232.90647888 325.12025452 C231.25103561 325.12231651 231.25103561 325.12231651 229.56214905 325.12442017 C228.34079758 325.12082489 227.11944611 325.11722961 225.86108398 325.11352539 C224.58322021 325.11367142 223.30535645 325.11381744 221.98876953 325.1139679 C218.47446409 325.11425585 214.9601925 325.1083594 211.44589496 325.10139394 C207.77700644 325.09516012 204.10811723 325.09455658 200.43922424 325.09336853 C193.48709565 325.0902553 186.5349827 325.08204202 179.58286101 325.07201904 C171.6700522 325.06085766 163.75724266 325.05534739 155.84442794 325.05032361 C139.56294279 325.0398594 123.28147339 325.02226011 107 325 C106.72894125 324.19864498 106.4578825 323.39728996 106.17860985 322.57165146 C91.80137244 280.04845386 91.80137244 280.04845386 77.35134888 237.54995728 C71.32340537 219.87724707 65.36087827 202.18458205 59.48175049 184.46183777 C57.58860213 178.75974506 55.68253479 173.06204024 53.77281189 167.36547852 C52.22925183 162.76074962 50.68806012 158.15522931 49.14694214 153.54968262 C48.39222675 151.29615946 47.63649668 149.04297583 46.87966919 146.79016113 C43.37118178 136.34444393 39.90422303 125.92946107 36.96337891 115.30859375 C35.2004705 109.25412474 33.09430494 103.31353061 31.02664185 97.35794067 C29.5087177 92.97960421 28.00840302 88.59523936 26.5078125 84.2109375 C26.17046585 83.22535355 25.8331192 82.23976959 25.48554993 81.22431946 C20.93001525 67.89441071 16.42852957 54.54625079 11.95265293 41.18940449 C10.6245662 37.22616308 9.2938948 33.26383705 7.95663452 29.30368042 C6.68255424 25.53020745 5.41570234 21.75438471 4.15431595 17.97665024 C3.68129819 16.56405625 3.20570248 15.15232275 2.72745895 13.74148941 C2.06990573 11.80013162 1.42248891 9.85534924 0.77563477 7.91040039 C0.22275536 6.26389244 0.22275536 6.26389244 -0.34129333 4.5841217 C-1 2 -1 2 0 0 Z " fill="#FD0118" transform="translate(1200,38)"/>
<path d="M0 0 C0.93925827 0.00202423 1.87851654 0.00404846 2.84623718 0.00613403 C3.82988754 0.00438171 4.8135379 0.00262939 5.82699585 0.00082397 C9.09579709 -0.00359648 12.36454472 -0.00065587 15.63334656 0.00271606 C17.89396678 0.00204308 20.15458693 0.0010731 22.41520691 -0.00018311 C27.15996487 -0.00166034 31.90470405 0.0004953 36.64945984 0.00515747 C42.7464828 0.01085477 48.84346175 0.0075759 54.94048309 0.00158501 C59.61058385 -0.00201991 64.28067408 -0.00088234 68.95077515 0.0017128 C71.19956467 0.00238226 73.44835513 0.00155298 75.69714355 -0.00076675 C78.83410694 -0.00329214 81.97099797 0.00054571 85.10795593 0.00613403 C86.51684334 0.00309769 86.51684334 0.00309769 87.95419312 0 C94.36283431 0.02126631 94.36283431 0.02126631 95.47709656 1.13552856 C95.57531673 2.85479126 95.60265249 4.57812778 95.6029377 6.30019379 C95.60554545 7.42670491 95.60815319 8.55321603 95.61083996 9.71386385 C95.60860924 10.96704519 95.60637852 12.22022653 95.6040802 13.51138306 C95.60642019 15.49008746 95.60642019 15.49008746 95.60880744 17.5087657 C95.61300538 21.18729261 95.610908 24.86579378 95.60782123 28.54432082 C95.60556922 32.50482472 95.60904574 36.46532403 95.61180115 40.42582703 C95.61625999 48.19117604 95.61528187 55.95651542 95.61238851 63.72186482 C95.61013492 70.02999585 95.60982176 76.33812417 95.61091232 82.64625549 C95.61106556 83.54227296 95.61121879 84.43829043 95.61137667 85.36145994 C95.61169637 87.18140368 95.61202059 89.00134741 95.61234926 90.82129115 C95.61520438 107.90792739 95.61191652 124.99455827 95.60654889 142.08119363 C95.60208082 156.75897592 95.60285675 171.43675032 95.60746765 186.11453247 C95.61281284 203.13784493 95.61492969 220.1611527 95.61185539 237.18446589 C95.61153682 238.99791113 95.61122245 240.81135638 95.61091232 242.62480164 C95.61068091 243.96335951 95.61068091 243.96335951 95.61044482 245.32895896 C95.6095795 251.63333401 95.61104287 257.9377061 95.61339188 264.24208069 C95.61618946 271.91951858 95.61545249 279.59694624 95.61011113 287.27438295 C95.60747355 291.19543545 95.60647 295.11647087 95.60976028 299.03752327 C95.61326514 303.27825524 95.60909522 307.51894364 95.6040802 311.75967407 C95.60742628 313.63944608 95.60742628 313.63944608 95.61083996 315.55719328 C95.60692834 317.24695996 95.60692834 317.24695996 95.6029377 318.97086334 C95.60277535 319.95113888 95.60261299 320.93141442 95.60244572 321.94139528 C95.47709656 324.13552856 95.47709656 324.13552856 94.47709656 325.13552856 C91.3414977 325.23087814 88.22796043 325.26103735 85.09208679 325.24905396 C83.61420181 325.24927299 83.61420181 325.24927299 82.10646057 325.24949646 C78.83284849 325.24879689 75.55929252 325.24100241 72.28569031 325.23318481 C70.02267488 325.23132079 67.75965904 325.22989682 65.49664307 325.22889709 C59.52730707 325.22507066 53.55799524 325.21523931 47.58866882 325.20419312 C41.50265327 325.19398168 35.41663383 325.18940005 29.33061218 325.18435669 C17.37942967 325.17361716 5.42826512 325.15653924 -6.52290344 325.13552856 C-7.80829473 322.56474598 -7.64826595 320.74330929 -7.64874458 317.86343288 C-7.65135233 316.73841411 -7.65396008 315.61339534 -7.65664685 314.45428509 C-7.65441613 313.20790754 -7.6521854 311.96152999 -7.64988708 310.67738342 C-7.65144708 309.36147628 -7.65300707 308.04556913 -7.65461433 306.68978602 C-7.65880709 303.02491998 -7.6567172 299.36007983 -7.65362811 295.69521368 C-7.65137404 291.74767908 -7.65485364 287.80014906 -7.65760803 283.85261536 C-7.66206452 276.11480902 -7.66108983 268.37701235 -7.65819539 260.63920563 C-7.65594105 254.35350507 -7.65562897 248.06780724 -7.65671921 241.7821064 C-7.65687244 240.88899978 -7.65702567 239.99589317 -7.65718355 239.07572271 C-7.65750326 237.26165751 -7.65782747 235.44759231 -7.65815614 233.63352711 C-7.66101054 216.60649807 -7.65772446 199.57947441 -7.65235578 182.55244625 C-7.64788701 167.92641045 -7.64866435 153.30038258 -7.65327454 138.67434692 C-7.65861969 121.70852594 -7.66073666 104.74270966 -7.65766227 87.77688795 C-7.65734371 85.96963696 -7.65702934 84.16238596 -7.65671921 82.35513496 C-7.65656493 81.46582215 -7.65641066 80.57650933 -7.65625171 79.66024764 C-7.65538643 73.37790236 -7.65684963 67.09556007 -7.65919876 60.81321526 C-7.66199628 53.16324994 -7.6612595 45.5132949 -7.65591802 37.86333077 C-7.65328046 33.95644816 -7.65227686 30.0495827 -7.65556717 26.1427002 C-7.65907202 21.91734839 -7.65490213 17.69204032 -7.64988708 13.46669006 C-7.65211781 12.21808179 -7.65434853 10.96947352 -7.65664685 9.68302864 C-7.6540391 8.56061761 -7.65143135 7.43820659 -7.64874458 6.2817831 C-7.64850105 4.81673955 -7.64850105 4.81673955 -7.64825261 3.32209915 C-7.37963641 -1.36359834 -3.89612301 0.01292882 0 0 Z " fill="#FC0218" transform="translate(1572.5229034423828,37.864471435546875)"/>
<path d="M0 0 C0.495 1.485 0.495 1.485 1 3 C-10.99601945 22.38891515 -37.5582747 46.04525241 -60.01953125 51.76953125 C-60.67308594 51.84558594 -61.32664062 51.92164063 -62 52 C-62 51.34 -62 50.68 -62 50 C-60.92363281 49.45472656 -59.84726563 48.90945313 -58.73828125 48.34765625 C-48.26974143 42.97019597 -38.36733284 37.26669388 -29.265625 29.73828125 C-27 28 -27 28 -25 28 C-25 27.34 -25 26.68 -25 26 C-23.49609375 24.51953125 -23.49609375 24.51953125 -21.4375 22.8125 C-17.89003826 19.81322507 -14.63477128 16.66004868 -11.4453125 13.28515625 C-10 12 -10 12 -8 12 C-7.731875 11.236875 -7.46375 10.47375 -7.1875 9.6875 C-6.04865495 7.11011382 -5.18583329 5.73045136 -3 4 C-2.34 4 -1.68 4 -1 4 C-0.67 2.68 -0.34 1.36 0 0 Z " fill="#E50C27" transform="translate(1174,297)"/>
<path d="M0 0 C-3.81654947 3.52296874 -8.37905813 4.58548654 -13.25 6 C-14.1359082 6.26127686 -15.02181641 6.52255371 -15.93457031 6.79174805 C-30.08214496 10.8591123 -44.26992357 13.19456275 -59 13.0625 C-59.96550781 13.05798828 -60.93101563 13.05347656 -61.92578125 13.04882812 C-64.28392089 13.03715417 -66.64192602 13.02078021 -69 13 C-69 12.67 -69 12.34 -69 12 C-66.18814406 11.66027199 -63.37571764 11.32809788 -60.5625 11 C-59.3878418 10.85691406 -59.3878418 10.85691406 -58.18945312 10.7109375 C-53.43210139 10.16276528 -48.81183609 9.92193211 -44.02319336 10.0625 C-41.87367865 9.99609771 -40.07377206 9.55049129 -38 9 C-34.0625 8.5625 -34.0625 8.5625 -32.09765625 8.37890625 C-29.55796931 7.92015461 -27.39194169 6.96535763 -25 6 C-23.04887404 5.49228194 -21.08985908 5.01416241 -19.125 4.5625 C-15.62218038 3.72113646 -12.38221906 2.85386259 -9.125 1.3125 C-5.818829 -0.07609182 -3.54619399 -0.25947761 0 0 Z " fill="#EB0F2C" transform="translate(1110,350)"/>
<path d="M0 0 C0.66 0 1.32 0 2 0 C0.51419856 4.28965254 -1.75326698 7.77478476 -4.375 11.4375 C-6.69910654 14.72611075 -9.00891487 18.00765951 -11.1640625 21.41015625 C-11.76992188 22.26480469 -12.37578125 23.11945313 -13 24 C-13.66 24 -14.32 24 -15 24 C-10.7755185 15.49394942 -6.16737373 7.28376368 0 0 Z " fill="#F10925" transform="translate(711,334)"/>
<path d="M0 0 C0.79921875 0.00902344 1.5984375 0.01804687 2.421875 0.02734375 C3.02515625 0.03894531 3.6284375 0.05054688 4.25 0.0625 C-2.75431211 4.73204141 -12.5610687 4.38860788 -20.75 4.0625 C-20.75 3.7325 -20.75 3.4025 -20.75 3.0625 C-19.5125 2.918125 -18.275 2.77375 -17 2.625 C-13.53396919 2.19174615 -10.28917857 1.51032135 -6.9375 0.53515625 C-4.55793638 0.02100054 -2.43138049 -0.0357556 0 0 Z " fill="#EF173A" transform="translate(1080.75,357.9375)"/>
<path d="M0 0 C0.66 0 1.32 0 2 0 C0.68246445 4.62509876 -1.15114107 8.0101877 -4 11.875 C-4.70125 12.84179688 -5.4025 13.80859375 -6.125 14.8046875 C-6.74375 15.52914063 -7.3625 16.25359375 -8 17 C-8.66 17 -9.32 17 -10 17 C-9.505 15.515 -9.505 15.515 -9 14 C-8.34 14 -7.68 14 -7 14 C-6.773125 13.360625 -6.54625 12.72125 -6.3125 12.0625 C-4.51434174 7.86679739 -2.26095979 3.96099444 0 0 Z " fill="#E60927" transform="translate(1186,279)"/>
<path d="M0 0 C0.515625 0.37125 1.03125 0.7425 1.5625 1.125 C-5.48862439 3.33711746 -12.08407821 3.32677072 -19.4375 3.125 C-19.1075 2.465 -18.7775 1.805 -18.4375 1.125 C-17.58478516 1.15980469 -17.58478516 1.15980469 -16.71484375 1.1953125 C-12.66107434 1.29005836 -9.56244864 1.16187009 -5.625 0 C-2.4375 -0.875 -2.4375 -0.875 0 0 Z " fill="#F0112C" transform="translate(193.4375,358.875)"/>
<path d="M0 0 C-1.43429001 0.67354499 -2.87257057 1.33859701 -4.3125 2 C-5.51326172 2.556875 -5.51326172 2.556875 -6.73828125 3.125 C-9 4 -9 4 -12 4 C-12 3.34 -12 2.68 -12 2 C-10.75579353 1.4654744 -9.50429064 0.94791389 -8.25 0.4375 C-7.55390625 0.14746094 -6.8578125 -0.14257812 -6.140625 -0.44140625 C-3.69987216 -1.07831803 -2.3596345 -0.80248831 0 0 Z " fill="#EE0E30" transform="translate(208,355)"/>
<path d="M0 0 C-1.45365269 1.17249353 -2.91307419 2.33783816 -4.375 3.5 C-5.18710938 4.1496875 -5.99921875 4.799375 -6.8359375 5.46875 C-9 7 -9 7 -11 7 C-9.91072362 3.73217086 -9.31652071 3.18062667 -6.625 1.25 C-6.01914063 0.80140625 -5.41328125 0.3528125 -4.7890625 -0.109375 C-3 -1 -3 -1 0 0 Z " fill="#EF0D2B" transform="translate(230,342)"/>
<path d="M0 0 C0.33 0 0.66 0 1 0 C0.58846263 4.97093824 0.20399168 9.44508386 -2 14 C-2.33 14 -2.66 14 -3 14 C-3.40652968 8.57960425 -2.03993514 4.92984325 0 0 Z " fill="#E20921" transform="translate(1511,138)"/>
<path d="M0 0 C0 0.66 0 1.32 0 2 C-5.625 5 -5.625 5 -9 5 C-9 4.34 -9 3.68 -9 3 C-3.375 0 -3.375 0 0 0 Z " fill="#E40E26" transform="translate(218,349)"/>
<path d="M0 0 C0.33 0.99 0.66 1.98 1 3 C-0.21484375 4.82421875 -0.21484375 4.82421875 -1.9375 6.6875 C-2.50339844 7.31011719 -3.06929687 7.93273437 -3.65234375 8.57421875 C-4.09707031 9.04472656 -4.54179688 9.51523437 -5 10 C-5.33 9.01 -5.66 8.02 -6 7 C-4.625 5.5 -4.625 5.5 -3 4 C-2.34 4 -1.68 4 -1 4 C-0.67 2.68 -0.34 1.36 0 0 Z " fill="#F2092C" transform="translate(1174,297)"/>
</svg>
