<?xml version="1.0" encoding="UTF-8"?>
<svg version="1.1" xmlns="http://www.w3.org/2000/svg" width="2000" height="409">
<path d="M0 0 C9.6444732 10.53327759 14.2712621 27.31157712 17 41 C17.66 41 18.32 41 19 41 C20.36193803 39.56622349 21.66406247 38.07542668 22.9375 36.5625 C37.89250959 19.75885214 57.98239232 10.45271363 80.453125 9.08984375 C81.29359375 9.06019531 82.1340625 9.03054687 83 9 C83.81984375 8.96003906 84.6396875 8.92007813 85.484375 8.87890625 C98.53681661 8.542707 111.90036435 9.95848515 124 15 C124.7115625 15.28617188 125.423125 15.57234375 126.15625 15.8671875 C137.03701122 20.746259 146.43925879 29.70359286 151.16015625 40.703125 C151.86044563 42.77467871 152.44520164 44.88483127 153 47 C153.44988281 46.5875 153.89976562 46.175 154.36328125 45.75 C176.19084738 26.15330737 198.22896982 20.66836141 227 22 C244.52380449 23.55050289 260.99188542 30.05483099 272.453125 43.734375 C291.07187191 67.24289383 288.0173781 98.87819809 285.3671875 126.90234375 C285.19048326 128.80582807 285.01399216 130.70933219 284.83769226 132.612854 C282.46420824 158.1023241 279.93929557 183.57768324 277.42384964 209.05346793 C276.87284162 214.63520579 276.32386318 220.21714191 275.7753647 225.79912686 C275.17300946 231.92887372 274.56944444 238.05850073 273.96530724 244.1880722 C273.71186333 246.76039657 273.4586963 249.33274824 273.20582008 251.90512848 C272.85546025 255.46712958 272.5037282 259.02899253 272.15161133 262.59082031 C272.04928192 263.63372223 271.94695251 264.67662415 271.84152222 265.75112915 C271.30334118 271.17918874 270.70437109 276.59092419 270 282 C254.00616762 280.78362986 238.03984303 279.38231001 222.08129883 277.76782227 C218.74789408 277.43097137 215.41402071 277.09905953 212.08007812 276.76757812 C209.93486716 276.55236899 207.78968373 276.33688507 205.64453125 276.12109375 C204.66023636 276.02316025 203.67594147 275.92522675 202.66181946 275.82432556 C201.28198128 275.68396629 201.28198128 275.68396629 199.87426758 275.54077148 C199.07475174 275.46020004 198.2752359 275.3796286 197.45149231 275.2966156 C194.61700382 274.9536598 191.81305907 274.48655986 189 274 C189.65460444 259.01992568 191.18905115 244.13270182 192.69354057 229.21877074 C193.05470042 225.63059019 193.41171668 222.04199728 193.76916504 218.45344543 C194.4452597 211.67171455 195.12466153 204.89031972 195.80545092 198.10905868 C197.02431335 185.9667967 198.23698578 173.82391526 199.44915342 161.68098336 C199.87330181 157.43332797 200.29874022 153.18580442 200.72533417 148.93839395 C200.92696337 146.9297485 201.12815566 144.9210598 201.32917786 142.91235352 C201.57257579 140.48070149 201.81668204 138.0491202 202.06169128 135.61763 C206.42648155 108.93591383 206.42648155 108.93591383 200 84 C196.51849196 81.2306186 194.61737163 81.01012085 190.1875 80.9375 C181.82899595 82.46591217 175.84398666 88.48673688 170.9140625 95.046875 C158.87155948 113.6267368 156.99301263 134.11784158 154.875 155.625 C154.61060802 158.2221376 154.34571263 160.819224 154.08032227 163.41625977 C152.74755033 176.60466447 151.52511066 189.77965425 150.75952148 203.01416016 C149.99595529 215.53967346 148.68922653 228.01560831 147.4375 240.5 C147.26902054 242.19248367 147.26902054 242.19248367 147.09713745 243.91915894 C146.77511996 247.1443695 146.44903823 250.3691372 146.12109375 253.59375 C146.02324585 254.5694545 145.92539795 255.545159 145.82458496 256.5504303 C145.73092651 257.45869064 145.63726807 258.36695099 145.54077148 259.30273438 C145.46020004 260.09240601 145.3796286 260.88207764 145.2966156 261.69567871 C144.97934061 264.16049686 144.51361881 266.56916571 144 269 C129.22601663 268.36017096 114.53058144 266.87861276 99.8203125 265.41601562 C96.28927106 265.06500476 92.75764756 264.72027225 89.22582436 264.37722778 C85.82990392 264.04651095 82.43451121 263.71052577 79.0390625 263.375 C77.77357574 263.25205566 76.50808899 263.12911133 75.20425415 263.00244141 C74.03808563 262.88562012 72.87191711 262.76879883 71.67041016 262.6484375 C70.64468903 262.54708496 69.6189679 262.44573242 68.56216431 262.34130859 C66 262 66 262 63 261 C63.69432121 246.39344471 65.22932364 231.86499114 66.69354057 217.32016468 C67.05433524 213.72927243 67.41156917 210.13802592 67.76916504 206.54681396 C68.44565724 199.75800707 69.12495683 192.96948453 69.80545092 186.18107772 C71.02359563 174.02829395 72.23687107 161.8750235 73.44915342 149.7216537 C73.8733797 145.46982547 74.29882138 141.2181212 74.72533417 136.96652174 C74.92696598 134.9554128 75.12815917 132.94426052 75.32917786 130.93309021 C75.57258469 128.49822975 75.81669175 126.06343912 76.06169128 123.6287384 C77.13815767 112.83952939 78.18532368 102.09945226 78.25 91.25 C78.270625 90.36957031 78.29125 89.48914063 78.3125 88.58203125 C78.3496702 82.32814433 77.82943065 76.31302734 73.58300781 71.34082031 C70.58150258 68.79852131 67.07839805 68.53130223 63.2421875 68.6015625 C56.25261795 69.84361144 50.36564833 75.90549374 45.9765625 81.16015625 C31.91779694 101.35921269 30.11679095 126.4865121 27.90088367 150.24832845 C27.56403168 153.82421587 27.20974254 157.39837867 26.85736084 160.97276306 C26.19568226 167.70943045 25.54815352 174.44737112 24.90647292 181.18596977 C23.96146447 191.10358585 22.9958514 201.01920179 22.02882004 210.93469143 C21.95772561 211.66375936 21.88663119 212.39282729 21.81338239 213.14398819 C21.67167929 214.59714193 21.52994059 216.0502922 21.38816524 217.50343889 C20.97506507 221.74274388 20.56655782 225.98245967 20.16215467 230.22260296 C19.85260257 233.46377842 19.53963598 236.70462537 19.22753906 239.94555664 C19.11742996 241.1137796 19.00732086 242.28200256 18.89387512 243.48562622 C18.79034225 244.55461655 18.68680939 245.62360687 18.58013916 246.72499084 C18.49168858 247.65269319 18.40323799 248.58039553 18.31210709 249.53621006 C18.03009369 251.76243878 17.59959418 253.8403707 17 256 C8.52817748 256.1993904 0.25221182 255.58216662 -8.171875 254.72265625 C-9.50697669 254.59010312 -10.84212172 254.45798585 -12.17730713 254.32627869 C-14.95431669 254.05126354 -17.73094932 253.77280413 -20.50732422 253.49145508 C-24.04934358 253.13254597 -27.59192983 252.77967322 -31.13477707 252.42903996 C-34.54318151 252.09146222 -37.95128952 251.75093654 -41.359375 251.41015625 C-42.62303894 251.28407486 -43.88670288 251.15799347 -45.18865967 251.02809143 C-50.8121813 250.45850022 -56.41430374 249.86896621 -62 249 C-63.04187316 245.87438053 -62.99679037 244.35541149 -62.67141724 241.13308716 C-62.57326721 240.1296376 -62.47511719 239.12618805 -62.37399292 238.09233093 C-62.25975983 236.99210098 -62.14552673 235.89187103 -62.02783203 234.75830078 C-61.9125415 233.59856247 -61.79725098 232.43882416 -61.6784668 231.24394226 C-61.29424551 227.39377174 -60.90098513 223.54457836 -60.5078125 219.6953125 C-60.23838925 217.01802781 -59.97098861 214.34054226 -59.70358276 211.66305542 C-59.06873113 205.31742238 -58.42758342 198.97244278 -57.78396976 192.62769306 C-56.84409729 183.36013392 -55.91255016 174.09173742 -54.98228264 164.82320976 C-54.87933016 163.79749735 -54.87933016 163.79749735 -54.77429783 162.75106347 C-54.63723088 161.3854199 -54.50018287 160.01977442 -54.36315429 158.654127 C-53.90097167 154.05056667 -53.43529139 149.44736824 -52.96853638 144.8442688 C-52.72265133 142.40806326 -52.47679032 139.97185529 -52.23095703 137.53564453 C-52.06568008 135.91566307 -52.06568008 135.91566307 -51.89706421 134.26295471 C-50.8334812 123.69116043 -49.85811228 113.13073623 -49.796875 102.5 C-49.78986069 101.6646875 -49.78284637 100.829375 -49.77561951 99.96875 C-49.75834129 97.31244362 -49.75177452 94.65636038 -49.75 92 C-49.74932526 91.08992188 -49.74865051 90.17984375 -49.74795532 89.2421875 C-49.77354307 67.5093422 -50.30004706 36.98027254 -64.6484375 18.92578125 C-66 17 -66 17 -66 13 C-49.95191056 9.45414245 -33.89747025 5.93763251 -17.8125 2.5625 C-16.59731689 2.30388184 -15.38213379 2.04526367 -14.13012695 1.77880859 C-13.00050537 1.54371582 -11.87088379 1.30862305 -10.70703125 1.06640625 C-9.7219458 0.85959229 -8.73686035 0.65277832 -7.72192383 0.43969727 C-5.05362936 0.00866324 -2.69371368 -0.24069139 0 0 Z " fill="#FED002" transform="translate(464,99)"/>
<path d="M0 0 C0.71027344 0.61101562 1.42054688 1.22203125 2.15234375 1.8515625 C25.18572989 23.28857535 33.34032567 56.47331963 34.87109375 86.828125 C34.91751299 88.2186391 34.96013277 89.60928263 35 91 C35.02723145 91.85658203 35.05446289 92.71316406 35.08251953 93.59570312 C35.84071124 121.19578879 32.27467622 147.66820818 21 173 C20.32517578 174.53527344 20.32517578 174.53527344 19.63671875 176.1015625 C8.09437746 200.74689967 -12.57017313 219.46914836 -38 229 C-49.13381901 232.6250149 -60.25682566 235.1117208 -72.00390625 235.23828125 C-72.75600876 235.2480751 -73.50811127 235.25786896 -74.28300476 235.26795959 C-106.85461804 235.60463496 -138.94631629 232.11377739 -164 209 C-190.24215674 183.03490977 -197.11214052 147.44435849 -197.36914062 111.82128906 C-197.45672915 75.25307784 -190.19683229 39.59625635 -166 11 C-165.28070312 10.07960938 -165.28070312 10.07960938 -164.546875 9.140625 C-148.90224309 -10.46012073 -122.17521633 -20.98639061 -97.92260742 -23.984375 C-63.86037957 -27.71910279 -26.74081139 -23.18373945 0 0 Z M-100.40234375 45.5546875 C-111.61905067 62.72255678 -111.23577413 85.59958761 -111.25 105.375 C-111.25067474 106.21804688 -111.25134949 107.06109375 -111.25204468 107.9296875 C-111.36171154 139.47203904 -111.36171154 139.47203904 -97.8984375 167.16015625 C-92.8721215 172.03133904 -87.78498072 174.70313877 -80.8125 175.25 C-73.70966841 174.78424055 -68.77806707 173.28941718 -63.75 168.0625 C-52.33807796 153.97342726 -50.88903832 134.01504598 -50.796875 116.50390625 C-50.78832489 115.19437233 -50.78832489 115.19437233 -50.77960205 113.85838318 C-50.77022467 112.02059105 -50.7636473 110.18278266 -50.75976562 108.3449707 C-50.75013199 105.60010621 -50.71906797 102.85601548 -50.6875 100.11132812 C-50.57679446 81.54702143 -51.24455889 58.77407743 -64 44 C-70.13162277 38.29759082 -76.25301649 35.44010788 -84.703125 35.6953125 C-91.42379587 36.58683006 -96.2210693 40.3923851 -100.40234375 45.5546875 Z " fill="#FED002" transform="translate(1009,154)"/>
<path d="M0 0 C21.56883081 50.0239928 15.89489507 137.53329122 -3.15234375 186.88818359 C-14.64617476 215.52344806 -33.09506284 236.90420769 -61.65625 249.28515625 C-90.36900379 261.00477981 -127.56366823 265.00423617 -157 254 C-165.98527172 250.0431831 -173.11819156 244.96722096 -180 238 C-180.93585938 237.09701172 -180.93585938 237.09701172 -181.890625 236.17578125 C-203.88988553 213.33420669 -203.44813958 177.41453599 -204.91961455 147.94012976 C-205.12905608 143.78379965 -205.34936988 139.62804334 -205.56819153 135.47219849 C-205.93366119 128.50149643 -206.29154569 121.5304392 -206.64428711 114.55908203 C-207.04982506 106.54525939 -207.46538314 98.53200755 -207.88677233 90.51900375 C-208.33906345 81.91709825 -208.78453635 73.31484966 -209.2277739 64.71247339 C-209.35435397 62.26375316 -209.48211364 59.81509687 -209.6101284 57.36645126 C-209.81220326 53.49393377 -210.00960622 49.62120277 -210.20366859 45.74827576 C-210.27474226 44.3427238 -210.34722485 42.93724211 -210.42137146 41.53184891 C-210.95737939 31.34438405 -211.07764488 21.19744661 -211 11 C-206.73875954 10.37689705 -202.54347596 9.84333626 -198.24267578 9.61108398 C-197.1568924 9.55109726 -196.07110901 9.49111053 -194.9524231 9.42930603 C-193.7950766 9.36884598 -192.6377301 9.30838593 -191.4453125 9.24609375 C-190.23036102 9.18092056 -189.01540955 9.11574738 -187.76364136 9.04859924 C-185.1934235 8.9117445 -182.62311828 8.77652213 -180.05273438 8.64282227 C-176.17285597 8.44000167 -172.2934737 8.22912403 -168.4140625 8.01757812 C-165.90367187 7.88492303 -163.39325587 7.75274693 -160.8828125 7.62109375 C-159.74570831 7.55860947 -158.60860413 7.49612518 -157.43704224 7.43174744 C-148.28579447 6.96624591 -139.15979764 6.93809135 -130 7 C-129.96061373 7.77431712 -129.92122746 8.54863424 -129.88064766 9.34641552 C-128.91720522 28.28097181 -127.94860097 47.21525779 -126.97441292 66.14926434 C-126.50340409 75.30600865 -126.03407444 84.46283299 -125.56884766 93.61987305 C-125.1628451 101.61111767 -124.75353933 109.60218547 -124.34044063 117.59306651 C-124.12228859 121.81509453 -123.90567273 126.03718743 -123.6930275 130.25949669 C-122.63830014 151.81510107 -122.63830014 151.81510107 -120.99169922 173.33129883 C-120.91900377 174.1424927 -120.84630833 174.95368658 -120.77140999 175.78946209 C-119.86391772 184.83043088 -117.52077566 192.47922434 -111 199 C-107.47958496 200.76020752 -103.84244831 200.52341043 -100 200 C-92.04162793 197.00098112 -87.12718754 190.19702443 -83.40625 182.85546875 C-76.648559 167.21968881 -73.44051912 149.91490392 -72 133 C-71.91459961 132.07823975 -71.82919922 131.15647949 -71.74121094 130.20678711 C-70.80848193 119.00150237 -70.75659788 107.80058757 -70.75 96.5625 C-70.74932526 95.52498596 -70.74865051 94.48747192 -70.74795532 93.41851807 C-70.77422779 67.8664536 -73.27038684 43.15395836 -77.9140625 18.03515625 C-78.7768978 13.36471692 -79.47874471 8.7202562 -80 4 C-64.82395949 2.89777006 -49.64396368 1.87804043 -34.45275879 1.00872803 C-32.92362107 0.92088019 -31.39456431 0.83160954 -29.86560059 0.74078369 C-19.89573317 0.1512979 -9.98846671 -0.11468442 0 0 Z " fill="#FED002" transform="translate(1308,124)"/>
<path d="M0 0 C15.60659148 15.34429582 23.78632991 35.55254189 24.0625 57.375 C23.71284809 80.71023024 11.90389959 100.98120761 -4.38208008 117.04663086 C-26.49817318 138.24372883 -57.44340647 152.37430083 -87.4375 157.75 C-83.03848651 167.60487176 -77.57764863 176.22314793 -67.4375 180.75 C-41.29250499 189.61271017 -10.54251279 172.1363099 12.21679688 160.97338867 C14.65045136 159.75929992 14.65045136 159.75929992 17.11132812 158.03637695 C19.5625 156.75 19.5625 156.75 21.59375 156.95915222 C25.13847672 158.38307057 26.08304843 162.30690096 27.53125 165.625 C27.89343628 166.42349365 28.25562256 167.2219873 28.62878418 168.04467773 C29.78719908 170.60714491 30.9249816 173.17819835 32.0625 175.75 C32.82808952 177.45242506 33.59500209 179.15425579 34.36328125 180.85546875 C36.11370742 184.73993997 37.85299145 188.62904135 39.57299805 192.52708435 C40.26982319 194.09250168 40.97809393 195.65284913 41.69458008 197.20936584 C42.060271 198.00918381 42.42596191 198.80900177 42.80273438 199.63305664 C43.13672241 200.35513809 43.47071045 201.07721954 43.81481934 201.82118225 C44.5625 203.75 44.5625 203.75 44.6875 206.55859375 C43.04741282 209.75334691 40.6001169 211.1173655 37.5625 212.8125 C36.91313477 213.18681152 36.26376953 213.56112305 35.59472656 213.94677734 C15.84763434 225.06295853 -4.75482724 233.90045599 -26.5625 240 C-27.39612061 240.23444824 -28.22974121 240.46889648 -29.08862305 240.71044922 C-42.59493883 244.3212923 -55.77630588 246.26215666 -69.73974609 246.14111328 C-71.9378049 246.12499776 -74.1340264 246.14110264 -76.33203125 246.16015625 C-103.01759059 246.20018792 -126.46476974 237.85233384 -146.02734375 219.29296875 C-152.68052226 212.45526448 -157.15269664 204.92328962 -161.50927734 196.52441406 C-162.26429523 195.08110265 -163.0582279 193.65819914 -163.86328125 192.2421875 C-183.3490764 156.82500934 -186.60160745 107.28546932 -175.97265625 68.703125 C-170.21791669 49.32113186 -159.79522028 31.9165672 -145.4375 17.75 C-144.71046875 17.02425781 -143.9834375 16.29851562 -143.234375 15.55078125 C-109.41157099 -16.33034327 -38.34986666 -32.5589777 0 0 Z M-89.72265625 51.9453125 C-100.4820305 63.26838973 -101.81137119 80.91228726 -101.57421875 95.81640625 C-101.40194879 99.51282738 -101.01080872 103.09515693 -100.4375 106.75 C-89.7753102 106.00612629 -79.82399718 101.17580334 -71.4375 94.75 C-70.81230469 94.28851563 -70.18710938 93.82703125 -69.54296875 93.3515625 C-61.60324364 87.08973137 -56.42509043 78.35810405 -55.12109375 68.3125 C-54.78552502 61.38462955 -56.26052512 54.4666254 -60.86328125 49.08203125 C-70.55571161 40.54167272 -81.136701 43.75040076 -89.72265625 51.9453125 Z " fill="#FED002" transform="translate(1703.4375,94.25)"/>
<path d="M0 0 C-1.560152 4.78994035 -4.26822878 8.2618518 -7.3125 12.1875 C-8.39991817 13.61215229 -9.48579935 15.03797877 -10.5703125 16.46484375 C-11.13395508 17.20589355 -11.69759766 17.94694336 -12.27832031 18.71044922 C-15.13936984 22.51517446 -17.91249899 26.38230134 -20.6875 30.25 C-25.7060022 37.23353326 -30.80151811 44.14928743 -36 51 C-39.69193226 50.4788599 -41.6168829 49.81422604 -44.25 47.1875 C-57.84412531 34.74977476 -75.39507993 22.28731019 -94.4765625 22.7578125 C-97.81166506 23.07789974 -99.57636158 23.65210029 -102 26 C-103.91895185 29.39014827 -104.97565932 31.90466948 -105.0625 35.8125 C-99.91439644 51.25681067 -86.35908426 60.11115731 -73.84765625 69.3203125 C-67.21419723 74.22070565 -60.99326084 79.33398429 -55 85 C-54.08089844 85.84304687 -53.16179687 86.68609375 -52.21484375 87.5546875 C-39.47135663 99.6496065 -30.43736561 115.30276311 -29.6640625 133.12890625 C-29.30353042 154.80837399 -34.16029551 173.77040837 -48 191 C-48.62132812 191.82757813 -49.24265625 192.65515625 -49.8828125 193.5078125 C-60.33525209 205.8116067 -77.27026881 214.29260672 -93 217 C-94.04414063 217.18175781 -95.08828125 217.36351562 -96.1640625 217.55078125 C-138.54884639 222.5143761 -182.88647791 205.2026462 -217 181 C-218.55654297 179.91912109 -218.55654297 179.91912109 -220.14453125 178.81640625 C-222.43799264 177.22221001 -224.72320795 175.61786164 -227 174 C-226.50351409 169.42570981 -225.5087144 166.80309361 -222.6875 163.1875 C-221.59888672 161.75470703 -221.59888672 161.75470703 -220.48828125 160.29296875 C-219.88814209 159.50672119 -219.88814209 159.50672119 -219.27587891 158.70458984 C-216.89673945 155.5260304 -214.64813581 152.2547257 -212.375 149 C-205.74091213 139.55076449 -198.88243733 130.269188 -192 121 C-187.5214484 121.46942326 -185.27906796 122.16858236 -182.125 125.375 C-167.69889673 138.88131816 -147.13918573 152.86495769 -126.7734375 152.2890625 C-122.16031307 151.80825798 -118.62458283 150.71654035 -115.34375 147.25 C-112.74031056 142.89075257 -113.44446343 137.89882245 -114 133 C-116.82881371 123.16650471 -125.46687787 116.23048003 -133.5625 110.6875 C-135.15912996 109.56343581 -136.75416412 108.43710177 -138.34765625 107.30859375 C-139.13285645 106.75413574 -139.91805664 106.19967773 -140.72705078 105.62841797 C-160.77559889 91.26495762 -183.16562674 72.92964213 -187.71875 47.21484375 C-190.75896299 23.27316644 -185.70061188 2.19938283 -171.37890625 -17.1953125 C-159.4077147 -31.83633813 -140.545682 -39.62531863 -122.14868164 -41.80371094 C-78.12317428 -45.82558435 -34.53755187 -25.71945352 0 0 Z " fill="#FED002" transform="translate(228,80)"/>
<path d="M0 0 C-0.55950267 7.53705679 -1.87233883 14.7601055 -3.50390625 22.1328125 C-3.7466478 23.25066132 -3.98938934 24.36851013 -4.23948669 25.52023315 C-5.00859723 29.05631912 -5.78541713 32.59065842 -6.5625 36.125 C-7.08840292 38.53634666 -7.61379862 40.947804 -8.13867188 43.359375 C-9.41991939 49.2408758 -10.70748418 55.12096584 -12 61 C-15.19525964 61.88702077 -17.02474647 61.97386495 -20.23828125 61.07421875 C-21.05103516 60.85531982 -21.86378906 60.6364209 -22.70117188 60.41088867 C-23.56291016 60.17217041 -24.42464844 59.93345215 -25.3125 59.6875 C-41.32811751 55.47949204 -61.2841156 50.80560031 -76.875 58.75 C-80.3599393 61.25915629 -82.16985292 63.11093746 -84 67 C-84.16011741 71.4032289 -83.18245556 74.18397575 -80.5625 77.625 C-70.1728322 88.57693217 -51.66669099 90.92428325 -37.5625 93.9375 C-18.87852396 97.9534411 -1.72967942 103.28138382 13 116 C13.67804688 116.58265625 14.35609375 117.1653125 15.0546875 117.765625 C25.21311484 127.1730402 30.43569666 138.92607763 34 152 C34.36931641 153.34964844 34.36931641 153.34964844 34.74609375 154.7265625 C39.43058234 175.59676685 34.9865892 197.58630011 23.72265625 215.5625 C20.53219647 220.07689207 16.86763838 224.06097903 13 228 C12.33484375 228.68964844 11.6696875 229.37929688 10.984375 230.08984375 C-15.58965133 255.70030806 -57.34090995 257.77220048 -92.078125 257.2578125 C-107.91081334 256.93679719 -123.57263163 254.48599189 -139 251 C-138.44660554 243.5672495 -137.1656825 236.45668827 -135.53125 229.19140625 C-135.29088013 228.1028685 -135.05051025 227.01433075 -134.80285645 225.89280701 C-134.29784663 223.61064174 -133.79011729 221.32907671 -133.27978516 219.0480957 C-132.49711516 215.54960495 -131.72244794 212.04941638 -130.94921875 208.54882812 C-130.45618816 206.325419 -129.96271437 204.1021081 -129.46875 201.87890625 C-129.23643677 200.83207169 -129.00412354 199.78523712 -128.76477051 198.7066803 C-128.54784546 197.73814621 -128.33092041 196.76961212 -128.10742188 195.77172852 C-127.91724487 194.92030777 -127.72706787 194.06888702 -127.53112793 193.19166565 C-127 191 -127 191 -126 188 C-119.58677513 188.57077701 -113.69977039 189.74413814 -107.5 191.4375 C-90.09921452 195.94839498 -70.82739396 199.28200433 -54 191 C-50.59555821 188.77669107 -48.23472457 186.9286691 -47 183 C-46.31074877 177.02648934 -47.69853153 172.87998307 -51 168 C-53.04814993 165.9030846 -54.59612119 164.54310125 -57 163 C-57.97839844 162.36964844 -57.97839844 162.36964844 -58.9765625 161.7265625 C-66.3381274 157.55247931 -74.27737769 156.19194474 -82.47021484 154.52246094 C-108.36632747 149.17429639 -136.76532482 141.75462506 -153 119 C-163.85481875 101.31698815 -168.85030865 80.36654291 -164.8125 59.8125 C-162.17473826 48.93019924 -157.95550909 39.77551045 -151 31 C-150.35417969 30.17757812 -149.70835938 29.35515625 -149.04296875 28.5078125 C-134.57794121 11.27859603 -113.49891615 2.71960891 -92 -2 C-91.27731934 -2.16371094 -90.55463867 -2.32742187 -89.81005859 -2.49609375 C-61.06367064 -8.65921746 -28.44179746 -6.51564388 0 0 Z " fill="#FED002" transform="translate(1933,42)"/>
<path d="M0 0 C1.48631275 9.84547893 2.65770839 19.68829769 3.64819336 29.59570312 C3.80098772 31.10215413 3.95405694 32.60857729 4.1073761 34.11497498 C4.43405627 37.32905801 4.75910123 40.5433005 5.08289909 43.75767517 C5.59658566 48.85419721 6.11573958 53.95015357 6.63587952 59.04602051 C8.11322129 73.52657831 9.58550281 88.00764143 11.04760742 102.48974609 C11.85748555 110.51110317 12.67298035 118.53186926 13.4945479 126.55203772 C14.01172658 131.60374945 14.52217791 136.65607876 15.02747524 141.708992 C15.34493663 144.866639 15.66900312 148.02358345 15.99484062 151.18037605 C16.14305199 152.62875758 16.28866885 154.0774077 16.43129349 155.52635002 C17.13505142 171.31793361 17.13505142 171.31793361 22.91102505 185.33361053 C26.00971509 187.80545656 28.03127662 187.93700439 32 188 C34.90110612 187.35891641 37.7104796 186.57480873 40.546875 185.69140625 C43 185 43 185 46 185 C47.74061916 191.61684621 49.46640382 198.23743213 51.18188477 204.86083984 C51.76733239 207.11400978 52.35618187 209.36629863 52.94848633 211.61767578 C53.79882435 214.85223901 54.63691423 218.08976416 55.47265625 221.328125 C55.74030289 222.33554749 56.00794952 223.34296997 56.28370667 224.38092041 C56.52403122 225.32159363 56.76435577 226.26226685 57.01196289 227.23144531 C57.22736221 228.05751282 57.44276154 228.88358032 57.66468811 229.73468018 C58.02800031 232.18916617 57.86575537 233.68583778 57 236 C38.28829961 251.88415455 9.07099853 253.65231881 -14 252 C-29.43131785 250.18332253 -41.55902443 242.14176998 -51.1875 230.3125 C-55.61028234 222.22948401 -58.17679906 214.29395658 -59.52105713 205.23620605 C-59.64728337 204.40921566 -59.7735096 203.58222526 -59.90356088 202.73017454 C-61.23050968 193.81673259 -62.1898201 184.87200911 -63.10058594 175.90820312 C-63.2894202 174.08758756 -63.4786884 172.26701696 -63.66835022 170.44648743 C-64.17499729 165.56995805 -64.6752032 160.6927895 -65.17376614 155.81542778 C-65.59187481 151.73113984 -66.0132321 147.6471896 -66.43456197 143.5632329 C-67.42735235 133.93960375 -68.41488023 124.31544495 -69.39892578 114.69091797 C-70.41380389 104.76566224 -71.43724914 94.84131602 -72.46487021 84.91737223 C-73.34943788 76.37227055 -74.22900665 67.82666472 -75.10447335 59.28062582 C-75.62640669 54.18602055 -76.15019265 49.09162345 -76.67870331 43.99769592 C-77.17371094 39.22438191 -77.66247835 34.45047012 -78.1463604 29.67601585 C-78.3251262 27.92256531 -78.50611321 26.16933963 -78.6894474 24.41636086 C-78.93864723 22.03021227 -79.17991509 19.64339287 -79.41912842 17.25622559 C-79.49392292 16.55809895 -79.56871742 15.85997231 -79.64577842 15.14069033 C-79.95055603 12.01835994 -80.00670744 10.02012233 -79 7 C-70.32457788 6.08057936 -61.64852732 5.16739832 -52.97163677 4.26194 C-48.94162384 3.84120364 -44.91185019 3.41840835 -40.88256836 2.99072266 C-36.98623415 2.57722828 -33.08934442 2.16938402 -29.19202614 1.76527405 C-27.7132585 1.61097315 -26.23469339 1.45471695 -24.75635338 1.29637146 C-16.48091187 0.41139285 -8.32905429 -0.1938849 0 0 Z " fill="#FED002" transform="translate(1447,110)"/>
<path d="M0 0 C1.58028992 -0.01572556 1.58028992 -0.01572556 3.19250488 -0.0317688 C5.40776055 -0.04454802 7.62315248 -0.04201457 9.83837891 -0.02490234 C13.21113243 -0.00785101 16.57713097 -0.06550451 19.94921875 -0.12890625 C22.11197716 -0.13213048 24.27474744 -0.1309748 26.4375 -0.125 C27.43463013 -0.14746796 28.43176025 -0.16993591 29.45910645 -0.19308472 C36.40289459 -0.05613493 39.87796503 1.86431575 44.82312012 6.70651245 C54.49713995 17.73314453 57.64846009 31.77083292 57.0390625 46.13671875 C56.03193039 57.86612317 51.68324154 67.87317 43.08984375 76.01171875 C30.23361258 86.07219619 15.38277305 87.13245592 -0.28125 85.8671875 C-11.03924843 83.77270993 -20.14503012 76.85503267 -26.28125 67.8671875 C-33.03044172 54.29904498 -35.20769082 37.94099015 -30.78125 23.1796875 C-24.91987151 8.92728296 -15.66417507 -0.09223341 0 0 Z " fill="#FED002" transform="translate(1387.28125,-0.8671875)"/>
</svg>
